<svg xmlns="http://www.w3.org/2000/svg" width="400" height="300" fill="none" viewBox="0 0 400 300">
  <g class="Girl with Shield">
    <path fill="#F6D4A0" d="M396.5 281.815H37.64s-43.14-26.71-16.845-50.635c26.295-23.925 58.705 21.455 81.705 30 23 8.545 13.5-109.225 66.645-130.865 53.145-21.64 81.745 18.775 110.78 84.275 29.035 65.5 59.075 58.68 80.965 37.61s35.61 29.615 35.61 29.615Z" class="shade10"/>
    <path fill="#28192D" d="M183.5 138.65s2.46 3.18 2.59 6.21a13.995 13.995 0 0 1-.5 4.835s-1.62.13-4.82-2.63-5.705-4.845-5.705-4.845l-5.405-5.27 10.555.355M396.5 281.96H28.45a.253.253 0 0 1-.175-.075.253.253 0 0 1-.075-.175.251.251 0 0 1 .25-.25H396.5a.25.25 0 1 1 0 .5Z" class="shade90"/>
    <path fill="#A6C2EA" d="M297.62 171.19a4.785 4.785 0 1 0 0-9.57 4.785 4.785 0 0 0 0 9.57ZM56.855 83.115a5.745 5.745 0 1 0 0-11.49 5.745 5.745 0 0 0 0 11.49Zm232.63-36.855a1.915 1.915 0 1 0 0-3.83 1.915 1.915 0 0 0 0 3.83Zm42.6 204.385a2.87 2.87 0 1 0 0-5.74 2.87 2.87 0 0 0 0 5.74ZM148.755 82.16a2.075 2.075 0 1 0 0-4.15 2.075 2.075 0 0 0 0 4.15ZM22.07 207.885a2.87 2.87 0 1 0 0-5.74 2.87 2.87 0 0 0 0 5.74Z" class="shade50"/>
    <path fill="#28192D" d="M329.055 262.585a19.591 19.591 0 0 1-7.355-1.415c-20.2-8.08-45.12-65.845-45.37-66.43l.46-.195c.25.58 25.085 58.155 45.1 66.165 5.765 2.305 12.175 1.705 19.045-1.785 9.675-4.91 18.21-14.54 22.85-21.94-2-1.345-3.705-2.865-4.68-4.535a5.843 5.843 0 0 1-.828-2.23 5.838 5.838 0 0 1 .133-2.375c1.42-5.165 4.475-6.875 6.71-6.285 2.15.57 3.89 3.42 2.63 8.33-.445 1.735-1.59 4.165-3.285 6.925 6.5 4.14 16.14 6.615 16.265 6.65l-.12.5c-.53-.135-9.96-2.555-16.415-6.695-4.695 7.475-13.295 17.175-23.03 22.115-4.22 2.115-8.27 3.2-12.11 3.2Zm35.19-40.64c-1.9 0-4.18 1.775-5.35 6.035a5.317 5.317 0 0 0 .64 4.215c.93 1.595 2.56 3.055 4.5 4.355 1.655-2.705 2.775-5.08 3.21-6.785 1.175-4.58-.355-7.21-2.27-7.72a2.9 2.9 0 0 0-.73-.1Zm-357.4 26.26c-3.04-6.36-3.41-11.97-1.1-16.675 4.17-8.5 15.835-11.1 15.955-11.125l.105.5c-.115 0-11.55 2.575-15.615 10.86-2.235 4.56-1.865 10 1.11 16.23l-.455.21Z" class="shade90"/>
    <path fill="#fff" d="m181.095 125.715-3.13-.455-12.93 20.09s-8.54-.93-12.69-1a9.583 9.583 0 0 0-6.67 2.545l23.665 7.705 16.22-17.71" class="shade0"/>
    <path fill="#28192D" d="M169.34 154.845h-.08l-23.665-7.71a.247.247 0 0 1-.165-.175.253.253 0 0 1 .065-.235 9.795 9.795 0 0 1 6.855-2.62c3.805.07 11.385.865 12.56 1l12.845-19.96A.262.262 0 0 1 178 125l3.13.455a.249.249 0 0 1 .114.444.257.257 0 0 1-.184.051l-2.975-.435L165.25 145.5a.241.241 0 0 1-.103.092.257.257 0 0 1-.137.023c-.085 0-8.58-.93-12.665-1a9.665 9.665 0 0 0-6.185 2.19l23.105 7.525 16.11-17.595a.25.25 0 0 1 .436.159.247.247 0 0 1-.066.181l-16.22 17.71a.262.262 0 0 1-.185.06Z" class="shade90"/>
    <path fill="#fff" d="m157.575 144.61-14.64-1.61a18.423 18.423 0 0 0-3.14-.185.975.975 0 0 0-.66.995c.16.635 11.285 4.5 11.285 4.5" class="shade0"/>
    <path fill="#28192D" d="M150.43 148.5h-.08c-5.135-1.775-11.285-4.025-11.445-4.66a.82.82 0 0 1 0-.21 1.227 1.227 0 0 1 .83-1.085 16.694 16.694 0 0 1 3.275.18l14.61 1.63a.248.248 0 0 1 .168.093.247.247 0 0 1 .054.185.252.252 0 0 1-.277.222l-14.64-1.635a18.882 18.882 0 0 0-3.07-.19.731.731 0 0 0-.315.245.726.726 0 0 0-.135.375v.035c.58.56 7.1 2.945 11.13 4.34a.256.256 0 0 1 .164.103.256.256 0 0 1-.06.354.254.254 0 0 1-.189.043l-.02-.025Z" class="shade90"/>
    <path fill="#fff" d="m157.175 146.34-13.41-2.5a22.866 22.866 0 0 0-2.72-.39.963.963 0 0 0-.66.855.411.411 0 0 0 0 .14c.16.635 9.8 3.5 9.8 3.5" class="shade0"/>
    <path fill="#28192D" d="M150.195 148.185h-.075c-4.46-1.33-9.81-3.05-9.97-3.69a.672.672 0 0 1 0-.21 1.21 1.21 0 0 1 .825-1.08c.961.053 1.917.18 2.86.38l13.4 2.5a.262.262 0 0 1 .092.037.263.263 0 0 1 .071.07.259.259 0 0 1 .002.283.234.234 0 0 1-.07.07.246.246 0 0 1-.19.04l-13.405-2.5a25.097 25.097 0 0 0-2.63-.385.71.71 0 0 0-.455.62v.035c.5.46 5.28 2.065 9.63 3.36a.286.286 0 0 1 .093.032.253.253 0 0 1 .024.42.251.251 0 0 1-.089.042.233.233 0 0 1-.098.006l-.015-.03Z" class="shade90"/>
    <path fill="#fff" d="m156.575 147.175-14.5-3.23c-.875-.2-.915.96-.915.96s2.81 1.095 8.375 3.39c5.905 2.43 19.465 6.26 19.465 6.26" class="shade0"/>
    <path fill="#28192D" d="M169 154.805a.143.143 0 0 1-.065 0c-.14-.035-13.645-3.86-19.5-6.27-5.5-2.265-8.345-3.38-8.375-3.39a.256.256 0 0 1-.115-.096.261.261 0 0 1-.04-.144 1.5 1.5 0 0 1 .455-1.05.871.871 0 0 1 .765-.145l14.5 3.23-.11.5-14.5-3.23a.383.383 0 0 0-.35.05.848.848 0 0 0-.24.5c.705.28 3.5 1.375 8.2 3.32 5.825 2.4 19.305 6.215 19.44 6.255a.24.24 0 0 1 .087.045.24.24 0 0 1 .063.075c.015.028.025.06.029.093a.23.23 0 0 1-.009.097.235.235 0 0 1-.091.117.248.248 0 0 1-.144.043Zm23.835-88.895c4.45-1 8.73-2.835 11.595-6.5 2.615-3.37 4.155-7.735 5.295-11.81a38.6 38.6 0 0 0 .865-3.8c-2.19-.045-4.325-.965-6.6-4.58-4.64-7.355-16.88-7.23-16.88-7.23l-.435 1.5-10.5 11.845s-.085 2.585 2.05 7.455c1.325 3 6.91 7.5 12.695 13.535.645-.15 1.28-.27 1.915-.415Z" class="shade90"/>
    <path fill="#fff" d="m195.345 60-25.97 76.95s7.025 4.09 12.56 6.88 3.63 5.865 3.63 5.865 10.575-30.04 16.325-51.265c4.26-15.73 4.03-23.915 4.54-25.575 0 0 1.125-10-6.83-16.475" class="shade0"/>
    <path fill="#28192D" d="M185.565 149.945a.222.222 0 0 1-.11-.025.24.24 0 0 1-.125-.305l.265-.76a2.826 2.826 0 0 0-.075-1.25c-.375-1.305-1.615-2.5-3.695-3.55-5.5-2.765-12.5-6.85-12.575-6.89a.26.26 0 0 1-.109-.127.261.261 0 0 1-.006-.168l26-76.97a.252.252 0 0 1 .488.063.23.23 0 0 1-.013.097l-25.935 76.775c1.125.65 7.395 4.26 12.375 6.775 2.215 1.115 3.545 2.42 3.955 3.87l.03.11c2.46-7.1 10.785-31.41 15.615-49.225a126.46 126.46 0 0 0 4.19-22.865c.048-.914.165-1.823.35-2.72 0-.05 1-9.895-6.745-16.205a.252.252 0 0 1-.092-.17.253.253 0 0 1 .052-.185.262.262 0 0 1 .355-.035c7.965 6.5 6.93 16.595 6.915 16.7-.177.877-.29 1.766-.34 2.66A127.002 127.002 0 0 1 202.13 98.5c-5.17 19.08-14.35 45.61-16.055 50.5a2.587 2.587 0 0 1-.3.835.238.238 0 0 1-.21.11Z" class="shade90"/>
    <path fill="#fff" d="m225.825 74.025 5.63 11.1-16.71 7.59-7.805-9.36" class="shade0"/>
    <path fill="#28192D" d="M214.745 92.965a.247.247 0 0 1-.19-.09L206.75 83.5a.255.255 0 0 1 .03-.355.237.237 0 0 1 .181-.059.243.243 0 0 1 .169.089l7.685 9.22 16.3-7.395-5.5-10.87a.254.254 0 0 1-.017-.19.252.252 0 0 1 .122-.145.254.254 0 0 1 .34.11L231.68 85a.25.25 0 0 1 0 .195.243.243 0 0 1-.051.086.246.246 0 0 1-.079.059l-16.7 7.605a.265.265 0 0 1-.105.02Z" class="shade90"/>
    <path fill="#fff" d="m193.435 238.52.155 30 9.88 7.805 8.63-38.76-18.665.955Z" class="shade0"/>
    <path fill="#28192D" d="M203.47 276.575a.252.252 0 0 1-.155-.05l-9.88-7.81a.254.254 0 0 1-.068-.088.25.25 0 0 1-.027-.107l-.155-30a.247.247 0 0 1 .066-.175.253.253 0 0 1 .169-.08l18.67-.955a.223.223 0 0 1 .2.09.27.27 0 0 1 .052.101c.009.037.01.076.003.114l-8.635 38.76a.256.256 0 0 1-.24.195v.005Zm-9.63-8.18 9.47 7.5 8.475-38.055-18.1.93.155 29.625Z" class="shade90"/>
    <path fill="#fff" d="m193.55 260.6.04 7.92 9.88 7.805 3.5-15.71c-4.463.435-8.958.43-13.42-.015Z" class="shade0"/>
    <path fill="#28192D" d="M203.47 276.575a.252.252 0 0 1-.155-.05l-9.88-7.81a.289.289 0 0 1-.095-.195l-.04-7.915c0-.036.007-.071.021-.103a.236.236 0 0 1 .059-.087.285.285 0 0 1 .19-.065c4.446.44 8.924.44 13.37 0 .04-.004.08.002.117.016a.261.261 0 0 1 .154.172.244.244 0 0 1-.001.117l-3.5 15.71a.256.256 0 0 1-.24.195v.015Zm-9.63-8.18 9.47 7.5 3.34-15c-4.274.4-8.576.4-12.85 0l.04 7.5Z" class="shade90"/>
    <path fill="#fff" d="m168.965 281.81 38.425-.21s1.685-.595 2.17-3.64c.485-3.045-2.475-11.625-2.475-11.625l-4 1.16a13.297 13.297 0 0 1-9.7-.9l-.335-3.53c-.265.1-.615.075-.795.295-4.695 5.875-12.795 7.58-18.975 9.45l-3.34 1a5.001 5.001 0 0 0-3.56 5.775c.265 1.24.975 2.235 2.585 2.225Z" class="shade0"/>
    <path fill="#28192D" d="M168.94 282.06c-1.5 0-2.465-.84-2.795-2.43a5.287 5.287 0 0 1 3.735-6.065c.935-.275 2.055-.605 3.335-1 .764-.23 1.552-.462 2.365-.695 5.82-1.675 12.42-3.58 16.5-8.67.173-.181.406-.293.655-.315a1.27 1.27 0 0 0 .245-.06.247.247 0 0 1 .22 0 .25.25 0 0 1 .12.19l.32 3.395a13 13 0 0 0 9.395.82l4-1.16a.255.255 0 0 1 .31.155c.12.355 2.965 8.675 2.5 11.75-.5 3.155-2.255 3.81-2.33 3.835a.243.243 0 0 1-.085 0l-38.425.21-.065.04Zm23.9-18.68a.658.658 0 0 0-.36.135c-4.17 5.215-10.85 7.145-16.745 8.84-.805.235-1.595.46-2.355.69-1.28.39-2.405.725-3.34 1a4.782 4.782 0 0 0-3.385 5.5c.28 1.365 1.035 2.03 2.305 2.03l38.38-.21c.235-.1 1.555-.79 1.97-3.43.415-2.64-1.925-9.91-2.385-11.28l-3.76 1.095c-3.29.96-6.822.633-9.88-.915a.255.255 0 0 1-.14-.2l-.305-3.255Z" class="shade90"/>
    <path fill="#ECA3B5" d="M209.375 278.805c.076-.278.138-.56.185-.845.355-2.26-1.175-7.555-2-10.145-1.5.35-3.07.32-4.54.87-1.875.705-2.845 2.955-3.36 4.745a10.85 10.85 0 0 0-.14 5.375h9.855Zm-26.835 1.76c4.71-.195 9.41-.45 14.125-.585 4.216-.058 8.425-.382 12.6-.97-.675 1.86-1.82 2.275-1.82 2.275L169 281.5a2.498 2.498 0 0 1-1.59-.47c5.055-.15 10.09-.26 15.13-.465Z" class="shade40"/>
    <path fill="#28192D" d="M166.46 280.13a.259.259 0 0 1-.174-.073.26.26 0 0 1-.076-.172.262.262 0 0 1 .072-.176.263.263 0 0 1 .173-.079l42.88-.935a.233.233 0 0 1 .181.066.244.244 0 0 1 .074.179.243.243 0 0 1-.07.178.258.258 0 0 1-.175.077l-42.88.935h-.005Z" class="shade90"/>
    <path fill="#ECA3B5" d="M190.095 266.1s-3.5 4.19-15.05 6.71c.205.08.41.16.61.255 1.492.71 2.87 1.636 4.09 2.75 1.32-.42 3-1 4.965-1.82 5.545-2.27 7.18-5.465 7.18-5.465l-1.795-2.43Z" class="shade40"/>
    <path fill="#28192D" d="M185.11 274.245a.277.277 0 0 1-.135-.035c-4.59-2.875-7.225-2.265-7.25-2.26a.27.27 0 0 1-.098.006.261.261 0 0 1-.165-.098.256.256 0 0 1-.042-.088.26.26 0 0 1 .028-.189.257.257 0 0 1 .152-.116c.115 0 2.845-.68 7.64 2.32a.25.25 0 0 1-.13.46Zm3.325-1.275a.219.219 0 0 1-.135-.04c-4.59-2.87-7.225-2.26-7.25-2.255a.256.256 0 0 1-.305-.18.249.249 0 0 1 .027-.19.247.247 0 0 1 .153-.115c.115-.03 2.845-.685 7.64 2.32a.245.245 0 0 1 .105.278.251.251 0 0 1-.087.13.253.253 0 0 1-.148.052Zm3.51-1.33a.232.232 0 0 1-.135-.04c-4.59-2.87-7.225-2.26-7.25-2.255a.256.256 0 0 1-.305-.18.249.249 0 0 1 .027-.19.251.251 0 0 1 .153-.115c.115-.03 2.845-.685 7.64 2.32a.24.24 0 0 1 .098.122.251.251 0 0 1-.08.286.256.256 0 0 1-.148.052Zm2.39-1.385a.238.238 0 0 1-.13-.035c-4.59-2.87-7.225-2.265-7.255-2.26a.26.26 0 0 1-.268-.099.252.252 0 0 1-.046-.191.238.238 0 0 1 .035-.094.252.252 0 0 1 .159-.116c.11-.03 2.845-.685 7.64 2.315a.25.25 0 0 1-.135.46v.02Z" class="shade90"/>
    <path fill="#fff" d="M191.785 266.285s2.765.32 4.305 2.5c0 0 1.21-8.365 1.5-10.4.29-2.035-5.345-4.425-5.265-2.075.08 2.35.2 7.1-2.275 9.655" class="shade0"/>
    <path fill="#28192D" d="M196.09 269.035a.249.249 0 0 1-.2-.105c-1.46-2.06-4.11-2.395-4.135-2.395a.261.261 0 0 1-.22-.28.256.256 0 0 1 .275-.22 7.068 7.068 0 0 1 4.115 2.14c.28-1.925 1.175-8.125 1.41-9.825.07-.53-.395-1.2-1.255-1.795-1.145-.79-2.625-1.18-3.225-.85a.57.57 0 0 0-.29.6c.075 2.145.245 7.165-2.345 9.835a.24.24 0 0 1-.175.073.24.24 0 0 1-.175-.073.242.242 0 0 1-.055-.082.245.245 0 0 1 .055-.273c2.44-2.5 2.275-7.39 2.205-9.47a1.07 1.07 0 0 1 .55-1.055c.895-.5 2.6.09 3.75.88 1.03.71 1.565 1.54 1.465 2.275-.28 2-1.5 10.315-1.5 10.4a.247.247 0 0 1-.19.205l-.06.015Z" class="shade90"/>
    <path fill="#fff" d="m258.91 238.52-.16 30-9.875 7.805-8.63-38.76 18.665.955Z" class="shade0"/>
    <path fill="#28192D" d="M248.875 276.575a.243.243 0 0 1-.085 0 .26.26 0 0 1-.104-.069.25.25 0 0 1-.056-.111L240 237.62a.244.244 0 0 1-.002-.114.244.244 0 0 1 .052-.101.235.235 0 0 1 .205-.09l18.67.955a.258.258 0 0 1 .168.081.257.257 0 0 1 .067.174L259 268.5a.254.254 0 0 1-.095.195l-9.875 7.81a.258.258 0 0 1-.155.07Zm-8.315-38.745 8.47 38.055 9.47-7.5.16-29.635-18.1-.92Z" class="shade90"/>
    <path fill="#fff" d="m258.795 260.6-.045 7.9-9.875 7.805-3.5-15.71c4.462.442 8.957.444 13.42.005Z" class="shade0"/>
    <path fill="#28192D" d="M248.875 276.575a.243.243 0 0 1-.085 0 .246.246 0 0 1-.16-.18l-3.5-15.71a.248.248 0 0 1 .004-.118.247.247 0 0 1 .057-.104.258.258 0 0 1 .214-.083c4.444.441 8.921.441 13.365 0a.285.285 0 0 1 .19.065.243.243 0 0 1 .063.086.234.234 0 0 1 .022.104L259 268.5a.236.236 0 0 1-.026.108.245.245 0 0 1-.069.087l-9.875 7.81a.247.247 0 0 1-.155.07Zm-3.18-15.675 3.335 15 9.47-7.5.04-7.5c-4.272.4-8.572.4-12.845 0Z" class="shade90"/>
    <path fill="#ECA3B5" d="M212.415 91.33s-1.16-1.665-1.315-2.61c-.155-.945 1.9-.22 1.9-.22s.75-1.335 1.8-1.345c1.05-.01 1.375.5 1.375.5a6.873 6.873 0 0 1 1.89-.795 3.136 3.136 0 0 1 1.785.5s1.63-1.4 3.1-1.32c1.47.08 1.965.65 1.965.65a3.07 3.07 0 0 1 1.97-1.295c1.195-.115 1.585.305 1.585.305s2.59-1.475 3.425-1.285c.835.19.045 4.68.045 4.68l-19.525 2.235Z" class="shade40"/>
    <path fill="#28192D" d="m212.295 91.595-.085-.12c-.05-.07-1.195-1.725-1.36-2.715a.607.607 0 0 1 .195-.595c.415-.355 1.395-.11 1.845 0 .26-.39.965-1.29 1.91-1.3a2.076 2.076 0 0 1 1.42.44 6.453 6.453 0 0 1 1.805-.73 3.142 3.142 0 0 1 1.805.46c.435-.345 1.815-1.345 3.13-1.26.673.003 1.334.19 1.91.54a3.083 3.083 0 0 1 2-1.185 2.561 2.561 0 0 1 1.63.255c.6-.335 2.64-1.415 3.46-1.235.935.205.55 3.2.235 4.97l-.035.18h-.185l-19.68 2.295Zm-.61-3.095a.553.553 0 0 0-.32.065s-.035.035 0 .135c.12.735.93 2 1.195 2.385l19.185-2.19c.35-2.085.41-4.065.115-4.215-.54-.115-2.28.715-3.245 1.265l-.17.1-.135-.145s-.35-.325-1.38-.23a2.787 2.787 0 0 0-1.785 1.185l-.185.27-.215-.245s-.47-.5-1.79-.565c-1.32-.065-2.905 1.245-2.925 1.26l-.14.12-.155-.1a2.952 2.952 0 0 0-1.605-.5 6.86 6.86 0 0 0-1.805.76l-.21.13-.13-.21s-.28-.385-1.13-.385h-.03c-.89 0-1.58 1.21-1.585 1.22l-.105.18-.195-.065a4.241 4.241 0 0 0-1.255-.225Z" class="shade90"/>
    <path fill="#ECA3B5" d="m227.42 89.55 5.35 30.71-10.58 121.865s-4.695 2-10.865 4.05-20.685-.315-20.685-.315l14.5-133.68c.665-8.19 2.605-15 6.61-22.15" class="shade40"/>
    <path fill="#28192D" d="M204.04 247.275a96.348 96.348 0 0 1-13.44-1.165l-.235-.04v-.235l14.5-133.68c.675-8.385 2.725-15.25 6.635-22.25l.435.245c-3.875 6.935-5.905 13.735-6.575 22.05l-14.445 133.45c1.89.295 14.72 2.165 20.335.29 5.5-1.84 9.885-3.645 10.705-4L232.5 120.27l-5.35-30.675.5-.09 5.36 30.745v.03l-10.595 122-.135.055c-.05 0-4.775 2-10.885 4.06-1.895.66-4.565.88-7.355.88Z" class="shade90"/>
    <path fill="#fff" d="M213.535 241.645h-.035a.246.246 0 0 1-.212-.174.24.24 0 0 1-.008-.096l13.24-132.43a.238.238 0 0 1 .028-.094.269.269 0 0 1 .062-.076.26.26 0 0 1 .087-.046.27.27 0 0 1 .098-.009.258.258 0 0 1 .225.275L213.785 241.42a.257.257 0 0 1-.25.225Z" class="shade0"/>
    <path fill="#ECA3B5" d="m221.115 101.225 4 3.43 10.53 138.815s11.5 6.05 19.385 5.5c10.29-.72 16.755-3.59 16.755-3.59S247.84 116 245.685 104.735c-2.155-11.265-13.72-16.5-13.72-16.5a65.215 65.215 0 0 1-12.765.5" class="shade40"/>
    <path fill="#28192D" d="M254 249.255c-7.795 0-18.36-5.5-18.47-5.565l-.125-.065v-.14l-10.5-138.71-3.915-3.36.33-.38 4.065 3.5 10.53 138.775c1.255.64 11.845 5.925 19.13 5.415 9.185-.645 15.37-3.035 16.5-3.5-1.06-5.755-23.96-129.535-26.05-140.45-2-10.555-12.57-15.85-13.5-16.3a67.13 67.13 0 0 1-12.74.47l.025-.5c4.243.24 8.499.072 12.71-.5h.075l.07.035c.115.05 11.71 5.445 13.865 16.695 2.125 11.12 25.845 139.355 26.085 140.645l.035.195-.18.08c-.065.03-6.62 2.9-16.835 3.61a11 11 0 0 1-1.105.05Z" class="shade90"/>
    <path fill="#fff" d="M269.62 246.11a.244.244 0 0 1-.245-.2c-.235-1.25-23.72-124.84-26.085-137.38-2.34-12.385-11.475-15.815-11.57-15.845a.253.253 0 0 1-.146-.128.248.248 0 0 1 .122-.337.248.248 0 0 1 .194-.005c.095.035 9.5 3.545 11.89 16.225 2.365 12.54 25.85 136.13 26.085 137.375a.245.245 0 0 1-.04.186.247.247 0 0 1-.159.104l-.046.005Zm3.76 35.525H243.5a11.19 11.19 0 0 1-1.595-5.85c0-3.5 3.935-11.275 3.935-11.275h14.5a33.887 33.887 0 0 0 3.62 3.775c2.615 2.31 6 4.81 7.55 7.125 2.775 4.15 1.87 6.225 1.87 6.225Z" class="shade0"/>
    <path fill="#28192D" d="M273.38 281.885H243.5a.243.243 0 0 1-.205-.11 11.364 11.364 0 0 1-1.64-6c0-3.53 3.8-11.07 3.965-11.39a.241.241 0 0 1 .09-.1.246.246 0 0 1 .13-.035h14.5c.038 0 .075.008.108.025.034.016.064.04.087.07a33.697 33.697 0 0 0 3.59 3.745c.66.585 1.39 1.195 2.095 1.785 2.125 1.785 4.325 3.63 5.5 5.39 2.805 4.21 1.92 6.37 1.88 6.46a.253.253 0 0 1-.22.16Zm-29.75-.5h29.565c.125-.535.345-2.5-1.885-5.835-1.13-1.695-3.3-3.5-5.405-5.28-.705-.595-1.435-1.21-2.105-1.795a34.899 34.899 0 0 1-3.57-3.715H246c-.5 1.05-3.84 7.865-3.84 11.025a11.23 11.23 0 0 0 1.47 5.6Z" class="shade90"/>
    <path fill="#ECA3B5" d="M272.855 279.72a3.347 3.347 0 0 1-.085 1.615h-28.695a8.567 8.567 0 0 1-.79-1.615h29.57Z" class="shade40"/>
    <path fill="#28192D" d="M273.38 279.44h-30.42a.25.25 0 1 1 0-.5h30.42a.25.25 0 1 1 0 .5Zm-16.88-4.335a.275.275 0 0 1-.175-.07.257.257 0 0 1-.074-.178c0-.033.007-.065.019-.096a.264.264 0 0 1 .055-.081c.065-.065 6.535-6.56 13.645-1.385.027.019.05.043.068.071a.25.25 0 0 1-.358.334c-6.765-4.915-12.75 1.07-13 1.33a.254.254 0 0 1-.18.075Z" class="shade90"/>
    <path fill="#ECA3B5" d="M245.805 278.65c1.915-8.615-.69-11.695-.69-11.695s-2.3 5.59-2.22 7.865c.041 1.333.228 2.658.56 3.95l2.35-.12Z" class="shade40"/>
    <path fill="#fff" d="M261.405 265.75a22.488 22.488 0 0 1-1.17-5.25c-.11-2.25.425-4.245-.27-4.62-.695-.375-6 .125-7.23.125-1.23 0-1.385 7.8-.745 9.675" class="shade0"/>
    <path fill="#28192D" d="M261.405 266a.243.243 0 0 1-.235-.165 22.314 22.314 0 0 1-1.17-5.31 22.086 22.086 0 0 1 .045-2.33c.06-1 .115-1.92-.18-2.08-.425-.23-3.5-.045-5.155.055-.855.055-1.59.1-1.96.1-.025 0-.07.03-.13.11-.82 1.15-.965 7.5-.38 9.235a.252.252 0 0 1-.155.315.257.257 0 0 1-.32-.155c-.59-1.735-.535-8.315.445-9.685a.67.67 0 0 1 .54-.32c.355 0 1.085-.045 1.93-.1 2.76-.165 4.915-.275 5.42 0 .58.31.525 1.25.445 2.55-.054.759-.069 1.52-.045 2.28a22.57 22.57 0 0 0 1.16 5.17.253.253 0 0 1-.155.32.225.225 0 0 1-.1.01Z" class="shade90"/>
    <path fill="#ECA3B5" d="M261.365 266.765s-5.185.315-6.105.435c-.402.043-.801.11-1.195.2 0 0 1.755 2.315 2.83 2.915.751.429 1.471.908 2.155 1.435 1.245-.389 2.53-.63 3.83-.72h2.79a16.202 16.202 0 0 1-4.305-4.265Z" class="shade40"/>
    <path fill="#28192D" d="M253.37 268.875a.25.25 0 0 1-.19-.04.253.253 0 0 1 .095-.46c.16-.065 3.95-1.62 9.74-1.245a.245.245 0 0 1 .172.086.24.24 0 0 1 .061.182.245.245 0 0 1-.086.171.249.249 0 0 1-.182.061c-5.66-.36-9.5 1.19-9.5 1.205a.236.236 0 0 1-.11.04Z" class="shade90"/>
    <path fill="#28192D" d="M254.915 270.365a.262.262 0 0 1-.128-.035.262.262 0 0 1-.092-.095.25.25 0 0 1-.021-.191.255.255 0 0 1 .121-.149c.18-.1 4.405-2.36 9.2-1.86a.258.258 0 0 1 .167.092.251.251 0 0 1-.039.351.253.253 0 0 1-.183.057c-4.635-.5-8.865 1.775-8.905 1.8a.263.263 0 0 1-.12.03Zm1.38.85a.267.267 0 0 1-.142-.047.269.269 0 0 1-.093-.118.246.246 0 0 1 .011-.193.248.248 0 0 1 .144-.127c.045 0 4.78-1.665 9.3-1.395a.251.251 0 0 1 .235.265.25.25 0 0 1-.265.235c-4.42-.26-9.06 1.355-9.105 1.37a.242.242 0 0 1-.085.01Z" class="shade90"/>
    <path fill="#28192D" d="M257.895 272a.255.255 0 1 1-.09-.5c.205-.08 5.05-1.885 7.745-1.29a.263.263 0 0 1 .195.3.251.251 0 0 1-.3.19c-2.56-.565-7.415 1.25-7.465 1.265l-.085.035Zm-81.01-230.57s-1.385 3.715.115 7.195c1.5 3.48 5.65 4.28 5.65 4.28l-2.64-9.82" class="shade90"/>
    <path fill="#fff" d="M194.95 68.03c.23 2.94.73 6.28 1.785 8.5 2.285 4.8 7.645 4.315 7.645 4.315L208.15 88a47.147 47.147 0 0 0 21.72-9.925 11.498 11.498 0 0 1-.815-1.34c-4-7.81-5.265-15.11-7.66-20.155-2.395-5.045-16.03-7.1-21.35-2.805-2.92 2.36-4.225 4.54-4.8 6" class="shade0"/>
    <path fill="#28192D" d="M208.15 88.245a.253.253 0 0 1-.225-.135l-3.69-7c-.955.03-5.625-.045-7.725-4.46-.905-1.905-1.5-4.795-1.81-8.595a.246.246 0 0 1 .136-.243.247.247 0 0 1 .191-.016.245.245 0 0 1 .147.125.24.24 0 0 1 .026.094c.29 3.74.885 6.57 1.765 8.42 2.18 4.59 7.34 4.175 7.39 4.17a.245.245 0 0 1 .245.135l3.685 7a46.697 46.697 0 0 0 21.25-9.74 10.337 10.337 0 0 1-.7-1.175c-2.34-4.56-3.745-8.935-5-12.8a60.894 60.894 0 0 0-2.69-7.36c-.905-1.905-3.675-3.555-7.42-4.405-4.445-1-10.36-.885-13.54 1.685-2.92 2.355-4.185 4.5-4.73 5.92a.254.254 0 0 1-.13.152.246.246 0 0 1-.199.009.248.248 0 0 1-.16-.242.244.244 0 0 1 .024-.099c.57-1.46 1.875-3.705 4.88-6.13 3.315-2.675 9.405-2.825 13.965-1.785 3.95.9 6.78 2.605 7.765 4.68a62.553 62.553 0 0 1 2.71 7.425c1.23 3.845 2.63 8.2 4.945 12.72.236.455.503.893.8 1.31a.252.252 0 0 1 .043.179.251.251 0 0 1-.088.161 47.292 47.292 0 0 1-21.84 9.975l-.02.025Z" class="shade90"/>
    <path fill="#28192D" d="M204.045 81.16a5.66 5.66 0 0 1-1.195-.12.247.247 0 0 1-.193-.198.227.227 0 0 1 .003-.097.23.23 0 0 1 .106-.159.244.244 0 0 1 .189-.03c2.65.544 5.765-1.236 5.795-1.256a.251.251 0 0 1 .371.281.254.254 0 0 1-.116.154 11.298 11.298 0 0 1-4.96 1.425Zm-7.955-30.595a7.796 7.796 0 0 0 3.09-6.065c.16-4.155-4.67-11.6-9.75-12.5-5.08-.9-13.895 7.095-12.405 10.835 1.49 3.74 19.065 7.73 19.065 7.73Z" class="shade90"/>
    <path fill="#fff" d="m197.04 58.14-.075-.04-7.275-6.1 2.415-7.19 13.36 7c-.18.305-1.88 7.065-1.86 7.525.135 3.255-4.985-.17-6.565-1.195Z" class="shade0"/>
    <path fill="#28192D" d="M202.5 60.96c-1.36 0-3.5-1.24-5.44-2.5l-.145-.09.14-.21-.165.195-.07-.045-7.275-6.08a.239.239 0 0 1-.075-.27l2.415-7.19a.261.261 0 0 1 .35-.155l13.36 7c.059.034.104.09.125.155a.26.26 0 0 1 .008.1.266.266 0 0 1-.033.095c-.215.455-1.825 6.95-1.825 7.39a1.321 1.321 0 0 1-.275 1.16 1.318 1.318 0 0 1-1.095.47v-.025Zm-12.5-9 7.195 6 .14.09c1.13.735 4.555 2.97 5.675 2.33.265-.155.385-.5.365-1 0-.425 1.38-6.115 1.8-7.415l-12.925-6.78L190 51.96Z" class="shade90"/>
    <path fill="#28192D" d="m192.105 44.83 1.575 1c2 3.54 2.77 7.365.135 9.635L189.69 52l2.415-7.17Z" class="shade90"/>
    <path fill="#fff" d="M182.785 37.28c-3.605.655-6 4.045-5.765 7.75a16.913 16.913 0 0 0 3.095 8.385c5.16 7.585 15.835 4.5 13.32-4.86-1.935-7.17-5.575-12.195-10.65-11.275Z" class="shade0"/>
    <path fill="#28192D" d="M187.5 57.955c-3.03 0-5.91-1.94-7.585-4.4a17.228 17.228 0 0 1-3.14-8.5c-.265-3.9 2.3-7.345 5.97-8 4.755-.885 8.755 3.29 10.93 11.445 1.295 4.81-.84 7.71-3.27 8.825a6.948 6.948 0 0 1-2.905.63Zm-4.71-20.675.045.245c-3.42.62-5.81 3.84-5.56 7.5a16.72 16.72 0 0 0 3.055 8.265c2.76 4.06 7.055 4.875 9.875 3.585 2.24-1.03 4.205-3.73 3-8.24-2.11-7.86-5.895-11.905-10.365-11.095l-.05-.26Z" class="shade90"/>
    <path fill="#ECA3B5" d="M187.305 53.85s.43.6 1.615-.575c1.185-1.175.225-2.045.225-2.045a2.5 2.5 0 0 0-1.27.435.568.568 0 0 0-.115.71s-1.31.42-.455 1.475Z" class="shade40"/>
    <path fill="#fff" d="m193 47.59.065-.075Z" class="shade0"/>
    <path fill="#28192D" d="M193 47.84a.256.256 0 0 1-.17-.07.249.249 0 0 1-.071-.175.25.25 0 0 1 .071-.175l.065-.07a.251.251 0 0 1 .331-.003c.047.04.076.095.084.156a.245.245 0 0 1-.04.172l-.07.085a.256.256 0 0 1-.2.08Z" class="shade90"/>
    <path fill="#fff" d="M193.055 47.5c.375-.435 2.185-2.7 1.195-4.875-1.095-2.42-3.54-.73-3 1.075" class="shade0"/>
    <path fill="#28192D" d="M193.055 47.765a.248.248 0 0 1-.234-.33.254.254 0 0 1 .049-.085c.355-.41 2.075-2.57 1.155-4.605-.385-.855-1-1.225-1.645-1a1.564 1.564 0 0 0-.88 1.9.245.245 0 0 1-.083.265.253.253 0 0 1-.087.045.255.255 0 0 1-.31-.17 2.069 2.069 0 0 1 1.215-2.5c.705-.265 1.675-.07 2.27 1.245 1.05 2.315-.845 4.69-1.235 5.14a.241.241 0 0 1-.215.095Z" class="shade90"/>
    <path fill="#fff" d="M192.58 42.815s1.19.045 1.12 1.825Z" class="shade0"/>
    <path fill="#28192D" d="M193.7 44.89a.25.25 0 0 1-.24-.26c.055-1.47-.785-1.56-.88-1.57a.25.25 0 0 1-.24-.26.256.256 0 0 1 .26-.235s1.435.075 1.36 2.085a.255.255 0 0 1-.163.225.254.254 0 0 1-.097.015Zm-2.24-3.54v3.21s-2.83-3.675-3.865-4.67l-1.03-1a33.935 33.935 0 0 1-6.145 1.905c-3.715.805-3.63 2.5-3.63 2.5s.265-1.545.42-2.5c.155-.955 3.945-3.535 3.945-3.535l4.09-1.26 2 .55 4.105 4.56m-6.01 12.265h-.085c-.645-.07-.71-.365-.74-.815a3.17 3.17 0 0 0-.13-.815c-.04-.08-.465-.645-.665-.915-.12-.16-.22-.29-.26-.35a.25.25 0 0 1 .153-.385.246.246 0 0 1 .257.1l.25.335c.281.332.531.69.745 1.07.087.303.137.615.15.93 0 .32 0 .32.29.345.29.025.77-.5 1-1a.247.247 0 0 1 .138-.15.248.248 0 0 1 .338.157.246.246 0 0 1-.026.203c-.255.625-.81 1.29-1.415 1.29Zm1.575 1.125a.24.24 0 0 1-.185-.085.263.263 0 0 1-.055-.081.264.264 0 0 1-.019-.097c0-.032.007-.065.019-.096a.263.263 0 0 1 .055-.081c.72-.635 2.53-2.55 2.275-3.75a.246.246 0 0 1 .037-.188.25.25 0 0 1 .158-.107.246.246 0 0 1 .295.19c.37 1.73-2.32 4.13-2.435 4.23a.228.228 0 0 1-.145.065Zm-5.187-2.58c.112-.107.091-.31-.046-.453-.138-.144-.34-.174-.451-.067-.112.107-.091.31.046.454.138.143.34.173.451.066Zm4.565-3.35c.112-.107.091-.31-.047-.453-.137-.144-.339-.174-.451-.067-.112.107-.091.31.047.454.137.143.339.173.451.066Z" class="shade90"/>
    <path fill="#fff" d="M209.68 46.72h-.045c-3.675-.7-5.7-3.415-7.66-6.035a30.457 30.457 0 0 0-2.7-3.295c-1.135-1.5-3.1-2.56-5.865-3.22a.257.257 0 0 1 .115-.5c2.88.685 4.945 1.82 6.125 3.38a30.687 30.687 0 0 1 2.725 3.32c2 2.665 3.87 5.18 7.355 5.84a.25.25 0 0 1 .16.106.25.25 0 0 1 .035.19.244.244 0 0 1-.245.215Z" class="shade0"/>
    <path fill="#28192D" d="M176.61 42.16s5.945 3.97 9.56 3.1c3.615-.87 5-1.93 5-1.93l-.26-1.14a35.75 35.75 0 0 1-4.08 1.81c-2.24.83-6.61-1.06-6.61-1.06s6.3.295 8.59-.905a8.493 8.493 0 0 0 3.315-3.115l-4.23-3.2-11.285 6.44Z" class="shade90"/>
    <path fill="#28192D" d="M178.74 42.15s2.26 3.35 1.075 6.26a24.143 24.143 0 0 1-1.77 3.74s-3.665-5.625-2.545-8.545 3.315-3.38 3.315-3.38l-.075 1.925Z" class="shade90"/>
    <path fill="#A6C2EA" d="M187.93 172.405c-.605 24.62-4.87 47-16.575 67.455-10.75 18.795-26.245 32.255-46.175 40.68a10.01 10.01 0 0 1-8.315 0c-27.41-11.585-45.2-32-54.855-59.81-6.5-18.79-8.735-38.19-7.5-58 .17-2.765 1.455-4.2 4.195-4.74 14.615-2.875 29.06-6.5 42.325-13.435 6-3.145 11.43-7.415 17-11.34 2.23-1.57 3.86-1.935 5.755-.15 10.325 9.725 23 14.975 36.265 19.035 7.645 2.34 15.5 4 23.27 5.92 3.17.78 4.04 1.685 4.2 4.945.165 3.58.31 7.18.41 9.44Zm-10.93 4.35c0-.575-.025-1.75 0-2.92.115-5.54-.27-6.06-5.61-7.37-16.965-4.17-33.39-9.635-48.03-19.575-1.095-.745-3.335-.57-4.685 0-2.37 1-4.415 2.77-6.675 4.075-13.24 7.63-27.62 12.22-42.405 15.695-3.845.905-4.585 1.805-4.585 5.765 0 16 2.32 31.605 7.845 46.66 8.215 22.39 22.5 39.38 44.265 49.755 2.545 1.215 4.855 1.37 7.465.135 15.435-7.29 27.65-18.135 36.41-32.795 10.835-18.095 15.05-38.015 16.005-59.425Z" class="shade50" opacity=".85"/>
    <path fill="#28192D" d="M121.035 281.69a10.843 10.843 0 0 1-4.265-.925c-26.575-11.23-45.08-31.405-55-59.96-6.27-18.02-8.77-37.575-7.525-58.105.175-2.875 1.535-4.405 4.4-4.97C72.5 155 87.185 151.5 100.9 144.315c4.625-2.42 9-5.57 13.2-8.62 1.255-.905 2.5-1.81 3.775-2.7 2.13-1.5 3.975-2.095 6.065-.125 10.95 10.31 24.43 15.38 36.17 18.975 5.605 1.715 11.425 3.095 17.055 4.43l6.2 1.5c3.325.82 4.23 1.885 4.39 5.175.13 2.63.245 5.26.335 7.365l.09 2.095c-.68 27.465-5.95 48.935-16.61 67.59s-26.19 32.29-46.29 40.79a10.736 10.736 0 0 1-4.245.9Zm.205-149.58c-.88 0-1.855.43-3.08 1.295s-2.5 1.79-3.765 2.695c-4.23 3.06-8.605 6.22-13.265 8.66-13.77 7.21-28.5 10.73-42.39 13.46-2.64.5-3.835 1.87-4 4.5-1.26 20.465 1.265 39.95 7.5 57.91 9.87 28.415 28.28 48.5 54.72 59.665a9.695 9.695 0 0 0 8.12 0c20-8.455 35.5-22.105 46.05-40.575 10.615-18.56 15.87-39.955 16.545-67.33l-.09-2.085c-.09-2.105-.205-4.735-.335-7.36-.15-3.07-.9-3.95-4-4.715-2.06-.5-4.13-1-6.195-1.5-5.635-1.335-11.465-2.715-17.085-4.44-11.8-3.61-25.345-8.705-36.365-19.09a3.428 3.428 0 0 0-2.365-1.09Z" class="shade90"/>
    <path fill="#fff" d="M177 176.755c-.96 21.41-5.175 41.33-16 59.44-8.76 14.66-20.975 25.5-36.41 32.795-2.61 1.235-4.92 1.08-7.465-.135C95.379 258.5 81.079 241.5 72.865 219.1c-5.5-15.055-7.85-30.665-7.846-46.66 0-3.96.74-4.86 4.585-5.765 14.785-3.5 29.165-8.065 42.406-15.695 2.26-1.305 4.305-3.055 6.675-4.075 1.35-.585 3.59-.76 4.685 0 14.64 9.94 31.065 15.405 48.03 19.575 5.34 1.31 5.725 1.83 5.61 7.37-.01 1.15-.01 2.33-.01 2.905Zm-102.326 6.3a97.867 97.867 0 0 0 3.22 26.445c5.835 22.115 18.17 38.925 39.596 48.305a8.147 8.147 0 0 0 7 0c11.845-5.185 21.68-12.875 28.795-23.705 11.595-17.635 14.925-37.35 14-58.05-.095-2.1-1.39-2.89-3.26-3.31-4.65-1.05-9.33-2-13.89-3.37-9.88-2.96-19.46-6.59-27.195-13.815-1.5-1.4-2.775-.855-4.275.285-3.14 2.385-6.29 4.845-9.735 6.73-9.566 5.245-20 8.03-30.64 10.105-2.466.5-3.656 1.65-3.616 4.145.03 2.09.005 4.18.005 6.235h-.005Z" class="shade0"/>
    <path fill="#A6C2EA" d="M74.68 183.055v-6.215c-.04-2.5 1.15-3.66 3.615-4.145 10.635-2.075 21.075-4.86 30.64-10.105 3.445-1.885 6.595-4.345 9.735-6.73 1.5-1.14 2.775-1.685 4.275-.285 7.735 7.225 17.315 10.855 27.195 13.815 4.56 1.365 9.24 2.32 13.89 3.37 1.87.42 3.165 1.21 3.26 3.31.925 20.7-2.405 40.415-14 58.05-7.115 10.83-16.95 18.5-28.795 23.705a8.15 8.15 0 0 1-7 0c-21.425-9.38-33.76-26.19-39.595-48.305a97.861 97.861 0 0 1-3.22-26.465Zm40.61 35.365c-1-1.215-1.775-2.17-2.535-3.155-3.795-4.915-7.57-9.85-11.38-14.755-2.5-3.245-6.11-3.865-8.935-1.6s-3.14 5.74-.735 8.875c6.3 8.21 12.633 16.4 19 24.57 2.645 3.395 7 3.325 9.69-.065.5-.63.93-1.325 1.39-2 9.36-13.557 18.72-27.11 28.08-40.66 2.26-3.275 1.86-6.82-.97-8.8-3.09-2.165-6.5-1.5-8.88 1.845-3.735 5.295-7.39 10.645-11.075 16-4.5 6.49-8.99 12.99-13.65 19.745Z" class="shade50" opacity=".85"/>
    <path fill="#fff" d="M115.29 218.42c4.66-6.755 9.15-13.255 13.64-19.755 3.685-5.335 7.34-10.685 11.075-16 2.37-3.355 5.79-4 8.88-1.845 2.83 2 3.23 5.525.97 8.8a52517.946 52517.946 0 0 1-28.08 40.66c-.46.665-.89 1.36-1.39 2-2.695 3.39-7.045 3.46-9.69.065a3831.3 3831.3 0 0 1-19-24.57c-2.405-3.135-2.065-6.63.735-8.875s6.42-1.645 8.935 1.6c3.81 4.905 7.585 9.84 11.38 14.755.755.995 1.57 1.95 2.545 3.165Z" class="shade0"/>
    <path fill="#28192D" d="M115.47 235.115h-.03a6.293 6.293 0 0 1-4.94-2.615c-5.78-7.41-12-15.45-19-24.575-2.5-3.235-2.175-6.855.78-9.22a5.892 5.892 0 0 1 4.45-1.365c1.78.21 3.5 1.275 4.84 3 2.263 2.927 4.523 5.855 6.78 8.785 1.53 2 3.063 4 4.6 6 .5.655 1.035 1.3 1.615 2l.705.865 3.765-5.455 9.685-14 2.895-4.195c2.665-3.875 5.425-7.875 8.18-11.78 2.44-3.455 5.975-4.185 9.23-1.91 2.965 2.075 3.38 5.75 1.03 9.15-7.06 10.23-14.124 20.457-21.19 30.68L122 230.44c-.14.205-.28.41-.415.62-.31.46-.63.94-1 1.39a6.534 6.534 0 0 1-5.115 2.665ZM96.075 197.81a5.505 5.505 0 0 0-3.5 1.295c-2.72 2.18-3 5.53-.695 8.525 7 9.125 13.215 17.165 19 24.575a5.813 5.813 0 0 0 4.55 2.41c1.78.035 3.465-.87 4.745-2.5.34-.43.655-.9.955-1.355l.425-.625 6.89-9.97A24582.98 24582.98 0 0 0 149.65 189.5c2.18-3.155 1.81-6.555-.91-8.455-3-2.1-6.27-1.415-8.53 1.785-2.755 3.905-5.5 7.905-8.18 11.775l-2.895 4.2c-3.21 4.645-6.415 9.285-9.68 14.025l-3.955 5.73a.254.254 0 0 1-.195.11.274.274 0 0 1-.205-.095l-.91-1.125c-.59-.72-1.115-1.37-1.625-2.03-1.54-2-3.075-3.992-4.605-5.975-2.254-2.93-4.512-5.857-6.775-8.78-1.26-1.625-2.86-2.625-4.5-2.82a4.973 4.973 0 0 0-.61-.035Z" class="shade90"/>
    <path fill="#fff" d="M161.81 150.5s-10.65-1.5-11.31-.85c-.66.65-1.835 2.545.91 2.88 2.745.335 15.97 3.75 18 2.395 2.03-1.355 3.425-4.21 3.425-4.21" class="shade0"/>
    <path fill="#28192D" d="M167.575 155.5c-2.625 0-7.22-.905-12.125-1.93-1.86-.39-3.33-.695-4.06-.785-1.05-.125-1.685-.5-1.885-1.09-.285-.84.42-1.815.835-2.215.665-.645 8.265.32 11.5.765a.252.252 0 0 1 .166.095.25.25 0 0 1-.231.4c-5.055-.695-10.585-1.22-11.1-.895-.36.355-.885 1.135-.695 1.69.19.555.89.685 1.47.755.75.09 2.23.4 4.105.79 4.605.965 12.32 2.58 13.7 1.645 1.93-1.305 3.325-4.085 3.34-4.11a.254.254 0 0 1 .144-.127.248.248 0 0 1 .191.012.248.248 0 0 1 .115.335c-.06.12-1.47 2.925-3.5 4.305a3.78 3.78 0 0 1-1.97.36Z" class="shade90"/>
    <path fill="#fff" d="M212.075 108.275a.143.143 0 0 1-.065 0 .233.233 0 0 1-.154-.114.242.242 0 0 1-.021-.191l2.165-7.935a.257.257 0 0 1 .315-.185.26.26 0 0 1 .158.12.26.26 0 0 1 .027.195l-2.14 7.925a.243.243 0 0 1-.285.185Z" class="shade0"/>
    <path fill="#28192D" d="M187.655 33.8a5.002 5.002 0 0 1 2.405-.8 15.061 15.061 0 0 1 2.68-.245c.919.059 1.827.227 2.705.5.41.12.83.245 1.235.38.472.179.929.396 1.365.65.83.43 1.655.88 2.5 1.33.378.228.74.48 1.085.755.375.28.76.545 1.14.815.38.27.73.54 1.12.815.39.275.85.57 1.255.88.69.535 1.36 1.1 2.08 1.595a10.019 10.019 0 0 0 2.595 1.315 9 9 0 0 0 1.5.32c.473.062.954.023 1.41-.115a.256.256 0 0 0 .157-.12.255.255 0 0 0 .026-.197.261.261 0 0 0-.318-.183 3.265 3.265 0 0 1-.655.15 3.315 3.315 0 0 1-.7-.06 8.734 8.734 0 0 1-1.375-.325A9.655 9.655 0 0 1 207.44 40c-.74-.5-1.435-1.11-2.155-1.66-.365-.28-.76-.5-1.13-.79-.37-.29-.825-.61-1.245-.91a21.875 21.875 0 0 0-2.225-1.55c-.86-.46-1.71-.945-2.58-1.385-.37-.185-.74-.385-1.125-.54a4.514 4.514 0 0 0-.56-.165c-.25-.06-.5-.165-.725-.24-.882-.28-1.792-.46-2.715-.535a14.147 14.147 0 0 0-2.94.235 5.545 5.545 0 0 0-2.63.88c-.255.195 0 .63.255.435l-.01.025ZM179 42.53c.409.68.673 1.438.775 2.225.097.4.149.809.155 1.22v1.24a7.764 7.764 0 0 1-.28 2.56c-.094.39-.242.766-.44 1.115-.155.245-.45.5-.525.775a.262.262 0 0 0 .027.196.26.26 0 0 0 .354.092.258.258 0 0 0 .119-.158c.03-.11.2-.25.265-.345.128-.171.244-.352.345-.54a5.6 5.6 0 0 0 .405-1.16 8.081 8.081 0 0 0 .245-2.655c-.035-.435 0-.855 0-1.285a5.319 5.319 0 0 0-.175-1.19 6.19 6.19 0 0 0-.82-2.345c-.185-.26-.62 0-.435.255H179Z" class="shade90"/>
    <path fill="#28192D" d="M179 42.465a6.38 6.38 0 0 0 1.295.725c.489.169.991.296 1.5.38.47.09.925.24 1.405.285.48.045.935.155 1.41.195a6.32 6.32 0 0 0 2.88-.305c.46-.18.925-.335 1.375-.54.489-.233.961-.497 1.415-.79.27-.165 0-.6-.255-.43-.403.264-.822.502-1.255.715-.445.21-.9.37-1.36.54a6.113 6.113 0 0 1-2.8.31c-.435-.04-.86-.15-1.3-.185a12.13 12.13 0 0 1-1.385-.28 10.23 10.23 0 0 1-1.335-.32 5.427 5.427 0 0 1-1.335-.73c-.27-.18-.5.25-.255.43Z" class="shade90"/>
    <path fill="#ECA3B5" d="m206.01 65.615-9.81-5.26.235-.44 9.235 4.95 2.775-11.845.485.115-2.92 12.48Z" class="shade40"/>
    <path fill="#ECA3B5" d="m206.06 65.06-.453.213 4.12 8.732.453-.213-4.12-8.732Z" class="shade40"/>
    <path fill="#28192D" d="M176.245 44.385c.09.95.145 1.905.23 2.86.085.955.405 1.845.47 2.79.065.945.53 1.635.905 2.425.301.798.686 1.56 1.15 2.275.28.36.595.69.875 1.055.275.332.567.65.875.95.3.32.615.615.945.905.33.29.615.635.955.925a20.597 20.597 0 0 1 1.85 1.93c.59.655 1.2 1.315 1.825 1.94.36.365.74.715 1.07 1.1.28.39.537.796.77 1.215.269.355.52.724.75 1.105.11.215.21.44.31.66a5.2 5.2 0 0 1 .29.59c-.22.235.13.585.35.35.22-.235.14-.5 0-.78-.215-.41-.37-.85-.605-1.25-.195-.32-.44-.615-.65-.925-.21-.31-.425-.795-.71-1.15-.55-.685-1.23-1.26-1.82-1.915-.59-.655-1.265-1.345-1.87-2.05a9.13 9.13 0 0 0-.925-.945c-.165-.145-.345-.27-.5-.43-.155-.16-.31-.36-.5-.5a14.782 14.782 0 0 1-1.93-1.9c-.26-.325-.5-.65-.785-.96a4.455 4.455 0 0 1-.725-1.23c-.375-.865-.855-1.685-1.205-2.555a7.352 7.352 0 0 1-.255-1.545c-.085-.5-.21-1-.31-1.5s-.095-1.105-.17-1.66c-.075-.555-.085-1.15-.14-1.725-.03-.32-.53-.325-.5 0l-.02-.055Z" class="shade90"/>
    <path fill="#ECA3B5" d="m206.875 85.355-.085-.5c.14 0 13.84-2.455 21.065-9l.335.37c-7.335 6.655-21.19 9.11-21.315 9.13Z" class="shade40"/>
    <path fill="#28192D" d="M261.12 116.815s4 .18 6.41 2.04a14.009 14.009 0 0 1 3.36 3.5s-.95 1.32-5.125 1.97a365.4 365.4 0 0 0-7.385 1.225l-7.5.695 7.12-7.805" class="shade90"/>
    <path fill="#fff" d="M261.055 128.9a48.007 48.007 0 0 1-.105 6.255c-.29 2.27-.705 3.53-.23 3.775.39.2 2.08-.205 2.86-3.88.04-.287.054-.576.04-.865" class="shade0"/>
    <path fill="#28192D" d="M260.93 139.22a.679.679 0 0 1-.325-.07c-.5-.255-.38-1-.16-2.325.08-.5.175-1.05.255-1.705a47.32 47.32 0 0 0 .105-6.21.266.266 0 0 1 .015-.097.262.262 0 0 1 .051-.083.235.235 0 0 1 .079-.057.241.241 0 0 1 .095-.023.238.238 0 0 1 .185.061.233.233 0 0 1 .075.179 47.07 47.07 0 0 1-.11 6.295c-.08.66-.175 1.23-.255 1.72-.14.84-.28 1.71-.105 1.8a.706.706 0 0 0 .5-.09c.415-.195 1.44-.935 2-3.615.032-.182.044-.366.035-.55v-.27a.269.269 0 0 1 .255-.245.253.253 0 0 1 .177.078.252.252 0 0 1 .068.182v.245c.009.222-.006.445-.045.665-.595 2.79-1.685 3.68-2.285 3.965-.19.092-.398.143-.61.15Z" class="shade90"/>
    <path fill="#fff" d="m254.5 113.935 6.18 11.955a23.419 23.419 0 0 0 2.135 8.44c2.055 4.44 3.16 10.805 5.43 11.615 2.27.81-1.45-10.1-1.45-10.1s.265.165 4.705-1.89c.36-.165.54-.765.615-1.5a7.428 7.428 0 0 0-1.535-5.3c-.615-.795-1.3-1.68-1.82-2.32-1.185-1.46-2.07-5-2.07-5l-7.19-9.96-5 4.06Z" class="shade0"/>
    <path fill="#28192D" d="M268.44 146.235a.871.871 0 0 1-.295-.055c-1.6-.575-2.58-3.46-3.71-6.805a51.066 51.066 0 0 0-1.86-4.94 24.323 24.323 0 0 1-2.16-8.5l-6.155-11.885a.263.263 0 0 1 .065-.31l5-4.06a.246.246 0 0 1 .36.05l7.19 9.96a.19.19 0 0 1 .04.085c0 .035.89 3.5 2 4.92.44.54 1.055 1.325 1.82 2.325a7.608 7.608 0 0 1 1.59 5.5c-.105.945-.35 1.5-.76 1.69a32.631 32.631 0 0 1-4.5 1.85c2.805 8.43 1.965 9.825 1.765 10.025a.613.613 0 0 1-.39.15ZM254.8 114l6.085 11.775a.232.232 0 0 1 .03.11 23.334 23.334 0 0 0 2.115 8.34 52.295 52.295 0 0 1 1.88 5c1.045 3.085 2.03 6 3.405 6.5.15.05.19 0 .21 0 .675-.665-.75-6.115-2-9.78a.248.248 0 0 1-.003-.15.247.247 0 0 1 .083-.125.27.27 0 0 1 .19-.05c.11 0 .835-.14 4.565-1.865.105-.05.365-.27.5-1.285a7.13 7.13 0 0 0-1.5-5.12c-.765-1-1.375-1.775-1.815-2.315-1.145-1.415-2-4.62-2.105-5.065l-7-9.71-4.64 3.74Z" class="shade90"/>
    <path fill="#fff" d="M266.525 135.8s3.97 11 4.9 10.675c2.41-.915-2.675-11.9-2.675-11.9" class="shade0"/>
    <path fill="#28192D" d="M271.38 146.73a.453.453 0 0 1-.185-.04c-1.155-.53-4.29-9.095-4.905-10.805a.25.25 0 1 1 .47-.17c1.775 4.92 3.965 10.14 4.62 10.5a.658.658 0 0 0 .315-.37c.765-1.885-2.03-8.705-3.17-11.175a.254.254 0 0 1 .041-.277.253.253 0 0 1 .079-.058.26.26 0 0 1 .335.125c.17.37 4.185 9.105 3.175 11.575a1.124 1.124 0 0 1-.64.665.527.527 0 0 1-.135.03Z" class="shade90"/>
    <path fill="#fff" d="M268.665 134.315s3.735 10.455 4.665 10.105c2.405-.915-2.44-11.335-2.44-11.335" class="shade0"/>
    <path fill="#28192D" d="M273.28 144.68a.495.495 0 0 1-.19-.045c-1.145-.53-4.085-8.62-4.66-10.24a.25.25 0 0 1 .159-.298.251.251 0 0 1 .311.133c1.665 4.66 3.74 9.605 4.38 9.94.16-.08.282-.22.34-.39.75-1.855-1.88-8.27-2.955-10.59a.241.241 0 0 1 .12-.33.252.252 0 0 1 .189-.008.253.253 0 0 1 .141.128c.165.35 3.955 8.555 2.965 11a1.168 1.168 0 0 1-.66.685.474.474 0 0 1-.14.015Z" class="shade90"/>
    <path fill="#fff" d="M270.57 132.26s3.7 8.365 4.63 8c2.405-.91-3.235-10.305-3.235-10.305" class="shade0"/>
    <path fill="#28192D" d="M275.175 140.525c-1 0-3.17-4.395-4.835-8.165a.252.252 0 0 1-.015-.198.25.25 0 0 1 .332-.149.24.24 0 0 1 .084.057.237.237 0 0 1 .054.085c1.64 3.705 3.77 7.77 4.35 7.875a.613.613 0 0 0 .325-.39c.605-1.74-2.5-7.5-3.72-9.55a.25.25 0 0 1-.029-.188.242.242 0 0 1 .042-.087.263.263 0 0 1 .164-.099.255.255 0 0 1 .253.119c.185.31 4.565 7.65 3.76 9.97a1.082 1.082 0 0 1-.655.7.275.275 0 0 1-.11.02Z" class="shade90"/>
    <path fill="#fff" d="m217.935 66 32.76 60.5s7.665-2.715 13.375-5.13 6.82 1.025 6.82 1.025-10.955-21.41-23.425-39.5c-9.24-13.425-20.765-24.625-21.7-26.08 0 0-6.9-7.325-17-5.445" class="shade0"/>
    <path fill="#28192D" d="M250.695 126.73a.244.244 0 0 1-.22-.13l-32.76-60.5a.232.232 0 0 1-.029-.092.241.241 0 0 1 .129-.243.247.247 0 0 1 .277.025.25.25 0 0 1 .063.075l32.66 60.32c1.25-.445 8.03-2.885 13.155-5.055 2.29-.97 4.145-1.14 5.5-.5l.275.14c-2.88-5.47-12.225-22.83-22.5-37.75-6.785-9.855-14.7-18.395-18.95-23-1.555-1.68-2.5-2.695-2.76-3.1-.035-.04-6.9-7.165-16.725-5.335a.253.253 0 0 1-.295-.205.255.255 0 0 1 .205-.295c10.1-1.885 17.14 5.445 17.21 5.5.265.405 1.3 1.5 2.735 3.07 4.255 4.6 12.185 13.16 19 23.045 11.3 16.41 21.47 35.755 23.185 39.055.109.164.198.34.265.525a.254.254 0 0 1-.013.18.252.252 0 0 1-.311.128.247.247 0 0 1-.136-.118l-.245-.47a2.733 2.733 0 0 0-1.155-.96c-1.24-.56-2.955-.385-5.1.5-5.65 2.39-13.31 5.11-13.385 5.14a.252.252 0 0 1-.075.05ZM382.43 88.955a.25.25 0 0 0 .25-.25.25.25 0 1 0-.427.177.25.25 0 0 0 .177.073Z" class="shade90"/>
    <path fill="#28192D" d="M382.43 88.955a.25.25 0 0 0 .25-.25.25.25 0 1 0-.427.177.25.25 0 0 0 .177.073Z" class="shade90"/>
  </g>
</svg>
