<?xml version="1.0" encoding="iso-8859-1"?>
<!-- Uploaded to: SVG Repo, www.svgrepo.com, Generator: SVG Repo Mixer Tools -->
<svg fill="#0aa8a7" height="800px" width="800px" version="1.1" id="Layer_1" xmlns="http://www.w3.org/2000/svg" xmlns:xlink="http://www.w3.org/1999/xlink" 
	 viewBox="0 0 512 512" xml:space="preserve">
<g>
	<g>
		<g>
			<path d="M424.747,4.544C422.741,1.707,419.477,0,416,0H309.333c-4.501,0-8.533,2.837-10.069,7.083l-43.712,122.389L212.736,7.147
				C211.243,2.859,207.189,0,202.667,0H96c-3.477,0-6.741,1.685-8.747,4.544c-1.984,2.859-2.475,6.507-1.28,9.771l82.709,227.456
				c-37.483,27.157-62.016,71.168-62.016,120.896C106.667,445.013,173.653,512,256,512s149.333-66.987,149.333-149.333
				c0-49.728-24.533-93.739-62.016-120.896l82.709-227.456C427.221,11.029,426.731,7.381,424.747,4.544z M111.232,21.333h83.861
				l67.328,192.32c-2.155-0.085-4.267-0.32-6.421-0.32c-24.811,0-48.192,6.165-68.8,16.917L111.232,21.333z M384,362.667
				c0,70.592-57.408,128-128,128s-128-57.408-128-128s57.408-128,128-128S384,292.075,384,362.667z M324.8,230.251
				c-12.096-6.315-25.088-11.093-38.827-13.909l-19.2-54.848l50.069-140.16h83.925L324.8,230.251z"/>
			<path d="M245.909,263.317l-18.901,56.704h-56.32c-4.587,0-8.661,2.901-10.112,7.253c-1.472,4.352,0,9.131,3.648,11.904
				l45.888,34.923l-17.685,60.245c-1.323,4.459,0.427,9.259,4.309,11.861c1.813,1.195,3.861,1.792,5.931,1.792
				c2.368,0,4.736-0.789,6.72-2.368l46.699-37.568l47.68,37.632c3.669,2.901,8.789,3.072,12.629,0.427s5.525-7.488,4.16-11.947
				l-18.56-60.16l45.803-34.859c3.648-2.773,5.12-7.573,3.648-11.904c-1.472-4.331-5.547-7.253-10.112-7.253h-56.32l-18.88-56.683
				C263.253,254.613,248.811,254.613,245.909,263.317z M267.221,334.037c1.451,4.352,5.525,7.296,10.112,7.296h32.384
				l-26.581,20.224c-3.563,2.709-5.056,7.339-3.733,11.627l10.667,34.539l-27.456-21.653c-1.941-1.515-4.288-2.283-6.613-2.283
				c-2.368,0-4.736,0.768-6.699,2.347l-26.837,21.589l10.176-34.667c1.237-4.245-0.256-8.832-3.776-11.499l-26.581-20.224h32.384
				c4.587,0,8.661-2.944,10.112-7.296L256,300.395L267.221,334.037z"/>
		</g>
	</g>
</g>
</svg>